#!OML:ASF H:\BabyWalks\Project 1\Capture day 1\Session 1\baby.ASF
:FULLY-SPECIFIED
:DEGREES
503
root 0.757546 17.5421 8.3591 -2.38152 48.0163 -12.0847
lowerback 17.8317 3.16031 4.41001
upperback 3.9275 5.16648 1.57711
thorax -5.49674 2.5181 -1.94833
lowerneck -0.156795 5.78783 13.2346
upperneck 2.27694 7.9805 -12.9622
head 1.75899 3.98075 -5.89322
rclavicle -9.41494e-014 5.71009e-014
rhumerus -41.2517 7.22689 -79.7362
rradius 59.8843
rwrist -8.87072
rhand -12.516 -16.8156
rfingers 7.12502
rthumb 13.5597 -46.3541
lclavicle -9.41494e-014 5.71009e-014
lhumerus -55.2317 -5.35924 72.4356
lradius 47.1239
lwrist 0.311656
lhand 1.39911 10.2449
lfingers 7.12502
lthumb 26.9298 38.3461
rfemur -0.300249 0.640222 28.2246
rtibia 27.6638
rfoot -13.0278 13.8072
rtoes -1.85487
lfemur -29.2439 -6.23702 -16.6234
ltibia 38.4062
lfoot -16.895 -8.10745
ltoes 12.2098
504
root 0.852943 17.5164 8.45258 -2.65178 48.0216 -11.9936
lowerback 17.8635 3.136 3.96576
upperback 3.98617 5.03684 1.33983
thorax -5.47486 2.46123 -1.92431
lowerneck -0.0620784 5.87322 13.2915
upperneck 2.218 8.08198 -12.5392
head 1.72407 4.03727 -5.76908
rclavicle 4.70126e-014 -1.02374e-014
rhumerus -41.1228 7.04012 -80.0161
rradius 59.489
rwrist -8.36137
rhand -12.3543 -16.805
rfingers 7.12502
rthumb 13.7156 -46.333
lclavicle 4.70126e-014 -1.02374e-014
lhumerus -54.3177 -4.85584 71.8234
lradius 46.8224
lwrist 0.0313851
lhand 1.13082 10.1133
lfingers 7.12502
lthumb 26.673 38.2539
rfemur -0.788317 0.0215633 27.7379
rtibia 30.0395
rfoot -11.412 15.7184
rtoes -1.65429
lfemur -28.6818 -6.72493 -16.7002
ltibia 39.0507
lfoot -17.4489 -7.69406
ltoes 12.5398
505
root 0.946928 17.4892 8.5436 -2.7786 48.0435 -11.7283
lowerback 17.9152 3.12033 3.43994
upperback 4.05449 4.90213 1.06603
thorax -5.45626 2.40266 -1.89271
lowerneck -0.0390067 5.957 13.2808
upperneck 2.202 8.1759 -12.0681
head 1.70729 4.0876 -5.61697
rclavicle 5.82439e-014 1.09332e-014
rhumerus -41.0263 6.8381 -80.2951
rradius 59.0918
rwrist -7.84868
rhand -12.3369 -16.8427
rfingers 7.12502
rthumb 13.7323 -46.3695
lclavicle 5.82439e-014 1.09332e-014
lhumerus -53.3134 -4.35656 71.2444
lradius 46.4795
lwrist -0.287167
lhand 0.845878 9.97308
lfingers 7.12502
lthumb 26.4003 38.1549
rfemur -1.4891 -0.517832 27.0827
rtibia 32.6865
rfoot -9.30306 17.567
rtoes -1.27905
lfemur -28.1309 -7.21678 -16.9042
ltibia 39.6526
lfoot -18.0646 -7.28488
ltoes 12.5375
506
root 1.03932 17.46 8.63252 -2.80536 48.0844 -11.3456
lowerback 17.9846 3.11352 2.87066
upperback 4.12835 4.7706 0.770416
thorax -5.44153 2.34593 -1.86088
lowerneck -0.0833771 6.03242 13.1899
upperneck 2.23471 8.2531 -11.539
head 1.70746 4.12775 -5.43251
rclavicle -1.02175e-013 -4.77083e-015
rhumerus -40.978 6.63826 -80.5666
rradius 58.7057
rwrist -7.34803
rhand -12.4597 -16.9267
rfingers 7.12502
rthumb 13.614 -46.4615
lclavicle -1.02175e-013 -4.77083e-015
lhumerus -52.2274 -3.89181 70.7166
lradius 46.1119
lwrist -0.639533
lhand 0.556494 9.84179
lfingers 7.12502
lthumb 26.1233 38.0649
rfemur -2.35761 -0.965409 26.3131
rtibia 35.5016
rfoot -6.72576 19.2299
rtoes -0.774042
lfemur -27.5783 -7.65773 -17.2139
ltibia 40.2004
lfoot -18.6671 -6.98169
ltoes 12.6828
507
root 1.13043 17.4298 8.71989 -2.78729 48.1387 -10.9148
lowerback 18.0671 3.1157 2.30056
upperback 4.20504 4.65117 0.471418
thorax -5.42871 2.29505 -1.83486
lowerneck -0.172738 6.09166 13.0145
upperneck 2.3038 8.30481 -10.9565
head 1.71624 4.15437 -5.21797
rclavicle 1.76918e-014 -1.23246e-014
rhumerus -40.9895 6.46489 -80.8269
rradius 58.3375
rwrist -6.87106
rhand -12.7133 -17.0544
rfingers 7.12502
rthumb 13.3695 -46.6054
lclavicle 1.76918e-014 -1.23246e-014
lhumerus -51.074 -3.48566 70.2572
lradius 45.7447
lwrist -1.01933
lhand 0.268564 9.71412
lfingers 7.12502
lthumb 25.8476 37.9777
rfemur -3.34267 -1.29992 25.4948
rtibia 38.3821
rfoot -3.80986 20.5906
rtoes -0.231993
lfemur -27.0147 -8.00792 -17.5872
ltibia 40.6882
lfoot -19.2597 -6.85501
ltoes 12.9625
508
root 1.22055 17.4 8.80599 -2.76408 48.2083 -10.4869
lowerback 18.1583 3.12515 1.76429
upperback 4.28205 4.54839 0.179579
thorax -5.4163 2.25189 -1.82389
lowerneck -0.263034 6.12643 12.7662
upperneck 2.36612 8.32306 -10.3374
head 1.71429 4.16469 -4.98311
rclavicle 3.55825e-014 -4.01545e-014
rhumerus -41.07 6.32556 -81.0768
rradius 58.0025
rwrist -6.42472
rhand -13.0694 -17.2183
rfingers 7.12502
rthumb 13.0263 -46.7916
lclavicle 3.55825e-014 -4.01545e-014
lhumerus -49.8662 -3.16052 69.8773
lradius 45.4056
lwrist -1.42816
lhand -0.0305697 9.57069
lfingers 7.12502
lthumb 25.5611 37.8756
rfemur -4.39863 -1.51102 24.6806
rtibia 41.2476
rfoot -0.822082 21.5855
rtoes 0.239643
lfemur -26.429 -8.25041 -17.9884
ltibia 41.11
lfoot -19.8693 -6.7344
ltoes 13.0556
509
root 1.3096 17.3718 8.89101 -2.77071 48.2975 -10.1079
lowerback 18.2614 3.13786 1.28574
upperback 4.35448 4.46199 -0.093318
thorax -5.41072 2.21596 -1.82942
lowerneck -0.312861 6.13597 12.4803
upperneck 2.38106 8.31118 -9.72714
head 1.68711 4.16094 -4.74944
rclavicle -4.39314e-014 -1.03368e-014
rhumerus -41.2095 6.22712 -81.3182
rradius 57.6887
rwrist -6.01134
rhand -13.5055 -17.387
rfingers 7.12502
rthumb 12.6059 -46.9867
lclavicle -4.39314e-014 -1.03368e-014
lhumerus -48.6243 -2.92546 69.5849
lradius 45.1306
lwrist -1.85928
lhand -0.330474 9.41168
lfingers 7.12502
lthumb 25.2738 37.7575
rfemur -5.48926 -1.59596 23.9194
rtibia 44.0413
rfoot 1.81361 22.1842
rtoes 0.218146
lfemur -25.8177 -8.39339 -18.3757
ltibia 41.459
lfoot -20.4587 -6.65024
ltoes 13.1075
